<svg width="330" height="399" xmlns="http://www.w3.org/2000/svg" xmlns:xlink="http://www.w3.org/1999/xlink" xml:space="preserve" overflow="hidden"><defs><clipPath id="clip0"><rect x="104" y="214" width="330" height="399"/></clipPath><clipPath id="clip1"><rect x="105" y="215" width="329" height="398"/></clipPath><clipPath id="clip2"><rect x="105" y="215" width="330" height="398"/></clipPath><clipPath id="clip3"><rect x="105" y="215" width="330" height="398"/></clipPath></defs><g clip-path="url(#clip0)" transform="translate(-104 -214)"><g clip-path="url(#clip1)"><g clip-path="url(#clip2)"><g clip-path="url(#clip3)"><path d="M163.075 396.953C157.943 395.591 150.926 392.135 147.679 389.097 145.689 387.317 143.28 386.584 137.415 386.06 123.38 384.803 112.068 379.252 105.679 370.14 103.48 367.103 100.547 364.694 97.51 363.332 91.3305 360.609 84.1037 354.639 80.7521 349.402 79.2858 346.993 74.1537 341.337 69.4405 336.624 60.3284 327.722 56.1389 320.704 54.8821 312.221 54.3584 308.869 53.1016 306.565 50.4832 303.946 45.6653 299.024 42.9421 292.635 41.9995 283.837 41.4758 278.705 40.6379 275.877 39.0668 274.201 36.4484 271.268 34.5632 265.822 34.5632 261.318 34.5632 259.538 33.6205 255.244 32.3637 251.787 30.5832 246.865 30.2689 243.932 30.6879 237.438 31.1068 230.84 30.8974 228.326 29.2216 224.87 28.1742 222.461 27.2316 219.214 27.2316 217.643 27.2316 215.967 26.7079 214.711 26.1842 214.711 24.5084 214.711 17.4911 219.424 15.1868 222.042 7.85526 230.316-1.46632 225.813 0.523684 215.025 1.88526 206.96 14.0347 189.364 23.0421 182.137 26.8126 179.1 27.2316 178.262 27.2316 173.968 27.2316 170.826 28.1742 167.369 29.85 164.227 31.5258 160.981 32.4684 157.629 32.4684 154.487 32.4684 148.622 34.7726 142.966 38.6479 138.776 41.1616 136.158 41.79 134.587 42.1042 128.826 42.5232 122.333 43.0468 120.762 49.5405 108.403 50.4832 106.727 51.9495 102.118 52.8921 98.3479 54.7774 90.7021 60.2237 82.5326 65.7747 79.0763 67.5553 77.9242 69.0216 76.1437 69.1263 75.201 69.1263 72.4779 72.8968 64.7274 75.62 61.5853 76.9816 60.0142 80.6474 57.1863 83.6847 55.1963 87.8742 52.4732 89.8642 50.1689 91.6447 46.2937 94.4726 40.2189 100.024 34.3537 105.784 31.4211 108.088 30.2689 109.974 28.9074 109.974 28.3837 109.974 26.0795 119.819 17.8053 123.904 16.5484 126.313 15.92 130.083 13.8253 132.178 11.94 139.3 5.65579 143.804 3.98 157.105 3.03737 163.704 2.51368 169.255 1.67579 169.464 1.04737 169.883-0.209474 185.698-0.418947 186.851 0.837895 187.688 1.57105 188.212 1.78053 191.564 1.99 192.716 1.99 195.753 3.66579 198.267 5.65579 201.304 7.96 205.075 9.63579 209.055 10.4737 223.404 13.4063 231.468 18.1195 238.172 27.4411 240.895 31.1068 243.932 33.83 247.388 35.5058 255.767 39.6953 264.67 50.7974 267.603 60.7474 268.022 62.2137 269.907 66.7174 271.897 70.6974 275.248 77.7147 278.391 92.0637 277.029 94.3679 276.61 94.8916 277.134 99.1858 277.972 103.899 281.323 122.228 281.742 127.151 280.59 133.644 279.962 136.996 279.124 143.594 278.705 148.203 278.181 153.23 277.029 158.257 275.772 160.771 274.515 163.075 273.258 167.474 272.944 170.512 271.687 181.928 269.593 187.793 263.832 195.858 261.528 199 257.757 204.656 255.348 208.322 251.159 214.711 243.618 220.995 240.057 220.995 239.219 220.995 236.705 222.566 234.401 224.556 229.478 228.745 219.109 232.935 212.825 233.144 210.416 233.249 207.798 233.773 207.065 234.401 202.456 238.067 198.057 239.114 181.928 240.057 168.941 240.895 164.227 240.79 160.876 239.847 156.791 238.591 149.774 237.753 149.774 238.591 149.774 240.476 152.811 243.408 156.896 245.503 159.724 246.969 162.552 248.855 163.285 249.693 164.123 250.635 165.903 251.368 167.474 251.368 168.941 251.368 171.664 252.311 173.444 253.358 177.529 255.872 193.658 256.501 201.933 254.406 206.332 253.358 208.426 253.254 212.092 254.301 216.491 255.453 217.329 255.348 221.833 253.044 224.556 251.683 231.678 249.064 237.753 247.179 243.827 245.294 251.159 242.675 253.987 241.314 257.024 239.847 262.261 238.486 266.241 238.067 274.411 237.334 274.515 237.438 274.201 249.274 274.096 256.501 274.411 257.967 278.495 267.079 284.361 280.066 288.759 287.293 298.605 300.176 306.251 310.021 311.068 314.839 323.951 324.998 328.245 328.559 328.874 329.502 328.874 333.063 328.874 335.263 328.455 337.462 327.826 337.776 327.303 338.091 326.779 339.347 326.779 340.395 326.779 343.118 321.856 346.679 318.086 346.679 315.886 346.679 313.896 347.831 310.859 350.764 307.088 354.639 299.443 358.2 295.148 358.2 294.101 358.2 292.844 359.247 292.321 360.609 289.388 368.255 279.752 374.853 270.221 375.691 264.67 376.215 263.727 376.634 261.633 379.776 260.271 381.766 256.501 384.803 252.939 386.688 247.598 389.516 245.294 390.04 237.753 390.459 231.154 390.773 227.384 391.506 223.299 393.392 215.758 396.953 206.332 397.686 198.581 395.486 192.821 393.811 192.192 393.811 188.107 395.382 183.08 397.476 168.731 398.314 163.075 396.953ZM182.452 388.783C183.499 387.736 183.185 387.107 181.195 385.746 176.691 382.604 169.569 374.644 164.961 367.626 160.876 361.342 158.257 354.953 154.801 342.489 153.649 338.614 152.706 337.462 149.355 335.786 147.155 334.739 143.28 333.587 140.871 333.273 136.891 332.854 136.158 333.168 134.482 335.682 130.397 341.861 134.273 361.447 141.814 372.235 149.145 382.813 164.227 390.983 175.225 390.354 178.472 390.145 181.823 389.412 182.452 388.783ZM214.815 386.898C216.072 385.327 215.863 384.803 213.139 382.918 201.304 374.434 194.182 363.542 189.155 346.26 187.688 341.233 186.013 336.415 185.384 335.682 183.604 333.482 175.12 331.806 169.883 332.644 161.295 333.901 159.514 338.509 162.866 351.183 167.055 367.522 178.576 381.033 192.611 386.584 199.105 389.097 212.825 389.307 214.815 386.898ZM243.304 382.918C246.655 381.556 252.416 375.796 252.416 373.806 252.416 373.282 249.483 371.502 245.922 369.931 232.621 363.856 225.394 355.896 214.606 335.263 209.474 325.627 207.169 323.846 201.618 325.732 197.534 327.093 194.287 330.445 193.344 334.32 192.297 338.928 194.706 352.021 197.848 358.724 201.828 367.207 212.092 377.472 220.366 381.347 227.593 384.803 237.334 385.432 243.304 382.918ZM138.672 376.005C139.3 375.377 139.195 374.539 138.567 373.701 135.32 369.512 130.712 355.058 129.35 344.898 127.674 332.33 126.417 330.235 118.876 327.303 107.669 323.113 103.271 327.512 104.004 341.966 104.632 352.754 107.251 360.295 112.383 366.16 120.238 375.063 134.273 380.299 138.672 376.005ZM271.687 368.569C276.086 367.312 281.742 362.494 281.742 359.876 281.742 358.933 279.647 357.781 275.877 356.629 259.957 352.021 253.568 347.203 241.418 330.445 230.735 315.886 226.022 313.582 218.376 319.552 215.758 321.647 215.548 322.275 216.177 326.674 217.119 333.692 224.346 347.726 230.526 354.429 241.837 366.788 257.967 372.339 271.687 368.569ZM100.233 345.527C100.338 341.861 100.966 335.367 101.699 331.178 102.852 324.056 102.852 323.323 100.862 320.704 98.3479 317.143 90.7021 313.163 87.8742 313.896 86.6174 314.211 84.7321 315.991 83.58 317.772 81.9042 320.495 81.6947 322.171 82.1137 328.664 82.8468 337.357 84.7321 342.804 88.8168 347.098 91.7495 350.135 97.091 353.068 98.9763 352.544 99.5 352.439 100.024 349.297 100.233 345.527ZM295.148 350.135C296.929 348.878 298.081 346.888 298.291 345.003 298.5 342.175 297.767 341.547 288.969 336.205 277.134 329.188 268.545 321.437 260.899 311.068 257.757 306.774 254.615 302.899 254.092 302.48 251.683 300.804 247.074 301.747 243.932 304.575 241.209 306.984 240.685 308.241 240.685 311.697 240.895 323.323 252.73 341.233 264.461 347.517 274.725 352.963 289.597 354.22 295.148 350.135ZM307.298 335.158C310.964 333.796 310.859 329.816 307.193 326.255 305.622 324.789 303.946 323.637 303.527 323.637 303.108 323.637 298.5 317.876 293.263 310.859 277.972 290.121 277.553 289.597 272.525 289.597 262.471 289.597 259.014 297.767 264.67 308.136 270.849 319.552 284.256 330.968 295.882 334.634 301.118 336.31 303.946 336.519 307.298 335.158ZM80.7521 313.687C83.58 307.926 82.9516 305.413 77.1911 298.919 73.4205 294.834 72.2684 294.101 70.0689 294.625 64.6226 295.986 63.3658 297.872 63.4705 304.47 63.5753 313.058 66.4032 320.495 71.5353 326.36L75.8295 331.283 77.1911 324.684C77.9242 321.123 79.6 316.096 80.7521 313.687ZM184.861 324.161C196.801 321.647 205.913 318.609 208.531 316.201L211.045 314.106 208.426 314.525C206.96 314.839 201.304 316.201 195.858 317.772 167.16 325.627 138.043 323.008 112.068 310.231 92.1684 300.49 76.4579 280.276 66.1937 251.264 62.9468 242.047 60.3284 231.992 59.1763 224.661 58.8621 222.356 58.1289 219.738 57.6053 218.9 56.0342 216.491 57.5005 227.174 60.4332 240.895 67.2411 272.63 82.7421 296.719 106.098 311.802 117.515 319.238 128.407 323.427 142.966 325.836 150.507 327.093 176.272 326.046 184.861 324.161ZM168.312 309.497C169.569 308.659 171.14 306.146 171.873 303.946 174.701 295.148 186.851 272.735 191.459 267.917 192.925 266.346 193.763 264.67 193.449 264.251 192.192 263.099 186.327 266.555 179.1 272.63 162.656 286.769 151.554 306.251 157.943 309.916 160.562 311.487 165.798 311.278 168.312 309.497ZM193.658 309.288C195.334 307.926 196.486 304.679 197.953 296.929 200.885 282.685 203.818 271.897 206.436 266.869 207.588 264.565 208.322 262.366 208.007 262.052 206.646 260.69 199.105 268.336 193.135 277.238 183.918 290.645 178.995 305.517 182.242 309.497 184.023 311.697 190.935 311.487 193.658 309.288ZM148.517 299.443C153.021 292.006 160.771 282.266 170.616 271.792 176.691 265.403 177.215 264.461 175.225 264.146 171.454 263.623 164.856 265.822 159.305 269.697 146.003 278.6 131.968 293.787 131.968 299.128 131.968 302.166 137.31 305.832 141.709 305.832 144.118 305.832 145.27 304.784 148.517 299.443ZM216.701 300.909C218.481 299.338 219.005 297.453 219.424 290.121 219.843 285.198 220.785 276.61 221.728 270.954 222.566 265.298 222.985 260.376 222.671 259.957 221.309 258.7 218.586 261.423 214.815 267.707 210.207 275.248 207.484 283.208 206.751 291.168 205.913 299.024 207.484 302.689 211.464 302.689 213.139 302.689 215.444 301.852 216.701 300.909ZM63.0516 293.263C65.8795 290.435 66.1937 289.493 65.7747 285.408 65.4605 282.894 64.2037 278.705 62.8421 275.982 60.7474 271.583 60.2237 271.164 57.1863 271.478 54.5679 271.687 53.5205 272.63 51.9495 275.877 50.1689 279.543 50.0642 280.695 51.1116 285.513 52.4732 292.216 55.0916 296.405 57.8147 296.405 58.9668 296.405 61.2711 294.939 63.0516 293.263ZM130.921 286.246C140.243 276.715 153.963 266.032 162.552 261.737 165.903 260.062 168.626 258.386 168.626 257.967 168.626 257.653 165.694 257.653 162.133 257.862 153.335 258.595 141.709 263.518 129.036 272.002 117.41 279.752 112.068 284.465 112.068 287.084 112.068 289.388 117.934 294.311 120.657 294.311 122.018 294.311 125.998 291.168 130.921 286.246ZM233.039 289.074C234.087 287.817 234.925 285.408 234.925 283.523 234.715 274.725 233.144 258.7 232.516 258.7 229.374 258.7 224.87 283.627 227.069 288.445 228.536 291.692 230.526 291.902 233.039 289.074ZM117.724 272.944C135.425 261.842 142.652 258.281 155.011 254.825 156.372 254.406 156.372 254.301 155.011 253.358 152.497 251.787 135.634 253.463 125.684 256.291 109.136 261.004 99.5 266.765 99.5 271.897 99.5 273.887 104.737 279.647 106.517 279.647 106.832 279.647 111.859 276.61 117.724 272.944ZM246.236 272.735C247.807 270.849 247.807 267.603 246.341 256.082L245.398 248.75 243.618 252.835C241.733 257.129 240.162 269.907 241.209 272.735 242.047 274.934 244.456 274.829 246.236 272.735ZM52.3684 268.65C55.9295 266.346 56.5579 265.508 56.5579 262.366 56.5579 257.653 53.9395 251.368 52.0542 251.368 47.6553 251.368 43.3611 259.957 44.6179 265.822 45.9795 272.421 46.2937 272.525 52.3684 268.65ZM105.365 257.757C119.295 251.892 131.34 248.436 147.155 245.922 149.041 245.608 148.936 245.294 146.108 243.513 141.918 240.685 126.836 240.895 113.116 243.932 96.9863 247.493 88.1884 253.358 91.0163 258.595 92.6921 261.633 96.7768 261.423 105.365 257.757ZM46.8174 249.064C50.1689 245.817 50.2737 245.503 50.2737 237.124 50.2737 227.174 49.3311 225.708 44.3037 227.803 39.9047 229.688 38.3337 232.83 38.3337 240.476 38.3337 246.446 40.5332 252.416 42.6279 252.416 43.0468 252.416 44.9321 250.949 46.8174 249.064ZM94.4726 244.037C107.879 239.847 116.258 238.067 126.941 237.229 131.968 236.81 135.948 236.077 135.634 235.658 134.587 233.982 115.42 231.049 105.261 231.154 86.6174 231.154 78.5526 233.877 78.5526 240.266 78.5526 243.094 81.3805 247.179 83.2658 247.179 84.1037 247.179 89.1311 245.817 94.4726 244.037ZM171.559 229.688C167.893 225.917 161.609 214.082 162.656 213.035 162.971 212.721 165.065 215.234 167.474 218.586 172.187 225.289 177.738 229.269 186.327 232.097 191.459 233.773 192.611 233.773 197.743 232.411 200.99 231.573 203.713 230.316 204.027 229.688 204.237 228.955 203.818 228.326 203.085 228.326 199 228.326 192.611 223.613 189.05 218.062 183.394 208.95 184.232 204.761 190.097 212.93 195.439 220.262 201.828 223.508 213.244 224.87 219.214 225.498 226.965 223.404 231.468 219.947L234.087 217.957 230.945 216.805C221.099 213.035 213.873 207.484 208.531 199.314 205.284 194.496 204.865 191.145 208.007 195.648 209.997 198.581 224.451 207.065 229.793 208.531 235.658 210.102 239.638 209.055 244.979 204.446L249.588 200.466 243.932 197.534C235.448 193.03 230.002 189.05 225.813 184.127 220.995 178.576 220.995 177.005 225.708 180.566 231.154 184.756 244.561 190.831 249.588 191.354 253.044 191.773 254.615 191.354 257.024 189.469 260.166 186.955 264.984 177.424 264.984 173.654 264.984 168.417 250.426 159.409 238.8 157.524 231.887 156.372 233.039 155.22 240.685 155.744 249.693 156.267 256.815 157.838 263.204 160.562 267.498 162.342 268.441 162.447 269.278 161.19 270.535 159.2 270.431 149.459 269.069 145.898 266.451 138.881 257.234 132.911 245.398 130.397 241.628 129.559 238.276 128.617 237.962 128.198 237.543 127.884 242.256 127.779 248.541 127.988 258.491 128.407 260.481 128.826 266.032 131.759L272.316 135.006 272.316 130.083C272.211 123.38 269.383 117.515 263.518 112.383 257.653 107.146 252.416 105.051 242.466 103.794 235.134 102.852 235.134 102.852 246.132 102.956 256.291 103.166 257.757 103.48 264.146 106.622 267.917 108.403 271.268 109.974 271.583 109.974 272.211 109.974 271.583 106.936 269.488 100.338 266.451 90.4926 251.997 81.6947 237.334 80.6474L228.85 80.0189 235.029 79.1811C238.905 78.5526 243.827 78.7621 248.541 79.4953 254.825 80.5426 258.072 81.6947 266.451 85.6747 268.441 86.6174 266.032 77.0863 263.204 72.4779 257.967 64.0989 244.77 59.1763 229.059 59.9095 224.661 60.0142 220.995 59.9095 220.995 59.5953 220.995 58.7574 228.326 56.8721 235.239 55.9295 238.8 55.5105 243.618 55.8247 249.274 56.9768 253.987 58.0242 258.176 58.5479 258.386 58.2337 259.643 56.9768 257.234 51.8447 253.358 47.6553 239.952 33.0968 220.471 33.3063 202.247 47.8647 198.057 51.3211 199 49.1216 204.237 43.3611 209.997 36.9721 213.244 34.8774 220.785 32.4684 224.661 31.2116 228.431 29.9547 229.269 29.7453 231.468 29.0121 226.86 24.6132 220.576 21.4711 216.491 19.3763 213.768 18.8526 208.007 18.8526 195.02 18.8526 184.023 25.9747 178.157 38.1242 175.644 43.3611 175.329 41.0568 177.738 33.9347 179.938 27.2316 184.442 20.9474 190.202 16.7579 195.544 12.6732 195.125 11.5211 187.793 9.00737 181.195 6.70316 176.482 6.91263 171.035 9.53105 163.599 13.0921 157.419 22.9374 153.963 36.4484 153.335 38.8574 152.497 40.8474 152.183 40.8474 151.031 40.8474 152.811 23.6705 154.382 18.9574 157.105 11.5211 156.791 10.4737 151.659 10.4737 146.317 10.4737 141.604 13.0921 137.938 18.0147 135.425 21.4711 129.874 34.2489 129.874 36.8674 129.874 37.6005 129.35 38.9621 128.722 39.8 127.884 40.9521 127.779 39.0668 128.303 33.3063 128.826 26.0795 128.722 25.1368 127.151 25.1368 124.323 25.1368 118.772 31.9447 117.41 37.0768 115.839 43.6753 115.944 50.2737 117.619 50.2737 118.457 50.2737 121.809 49.3311 125.265 48.0742 128.826 46.8174 135.006 45.77 139.824 45.5605 144.432 45.3511 147.051 45.3511 145.584 45.6653 129.141 48.9121 117.41 54.3584 106.622 63.68 85.9889 81.3805 65.67 117.305 60.3284 145.584 59.3858 150.297 58.6526 155.325 58.6526 156.791 58.6526 161.399 60.5379 158.257 62.2137 151.031 64.5179 140.976 71.7447 120.447 75.9342 112.068 80.6474 102.642 94.6821 84.5226 106.308 72.7921 114.163 64.9368 125.579 58.2337 136.786 54.8821 144.432 52.6826 162.552 52.3684 170.721 54.3584 190.726 59.1763 206.646 76.2484 212.092 98.4526 214.501 108.193 215.339 129.036 213.663 138.986 211.149 155.115 203.189 170.407 192.611 179.519 182.137 188.422 165.379 193.763 147.469 193.763 135.844 193.763 128.931 192.402 108.926 186.117 86.7221 179.205 83.58 178.576 69.1263 178.576 47.8647 178.576 32.4684 184.232 20.8426 196.067 11.6258 205.389 5.97 216.282 9.32158 218.272 9.74053 218.586 12.0447 217.224 14.2442 215.339 18.4337 211.778 29.0121 206.017 35.6105 203.713 38.9621 202.561 39.2763 202.142 38.9621 198.686 38.5432 194.077 40.4284 193.554 41.3711 197.953 42.1042 201.409 46.2937 204.237 50.7974 204.237 53.8347 204.237 53.9395 203.713 51.8447 200.047 51.0068 198.581 50.3784 195.753 50.3784 193.763L50.3784 190.097 51.9495 194.287C54.0442 199.838 58.2337 204.027 63.1563 205.389 68.0789 206.751 71.0116 205.913 69.2311 203.818 67.66 201.933 66.4032 191.668 67.7647 191.668 68.2884 191.668 69.2311 193.868 69.9642 196.591 71.4305 202.037 76.6674 207.693 81.2758 208.845 84.9416 209.788 85.4653 209.055 83.8942 205.598 82.2184 201.933 80.7521 191.668 81.9042 191.668 82.3232 191.668 82.7421 192.716 82.7421 194.077 82.8468 197.848 88.1884 206.541 92.0637 209.159 96.7768 212.302 98.9763 212.302 97.9289 209.264 96.4626 204.551 96.0437 195.858 97.3005 195.858 97.9289 195.858 98.4526 197.115 98.4526 198.791 98.4526 201.933 102.433 210.835 105.47 214.292 107.774 217.015 111.964 219.319 112.906 218.376 113.325 218.062 113.43 214.082 113.221 209.683 112.906 200.885 113.849 200.152 115.315 208.007 116.677 214.92 120.866 221.833 125.265 223.823 127.151 224.765 129.036 225.289 129.455 224.975 129.769 224.661 129.559 222.566 128.931 220.262 127.569 215.548 127.465 209.474 128.617 209.474 129.036 209.474 129.978 211.673 130.712 214.292 132.283 220.052 140.243 228.431 146.003 230.421 150.402 231.887 151.868 231.154 149.983 228.536 146.632 223.927 143.28 212.616 145.165 212.616 145.689 212.616 146.946 214.711 147.993 217.224 151.764 226.441 161.609 233.458 170.721 233.563L175.329 233.563 171.559 229.688ZM95.4153 227.069 108.612 225.813 104.318 222.88C101.804 221.204 98.5574 219.947 96.5674 219.947 94.6821 219.947 91.4353 219.109 89.2358 217.957 83.4753 215.025 75.0963 214.082 73.4205 216.177 71.64 218.376 72.6874 222.566 75.9342 225.813 78.8668 228.745 78.3432 228.745 95.4153 227.069ZM45.3511 223.194C47.3411 222.461 47.9695 221.204 48.4932 217.957 49.2263 212.406 47.9695 208.007 45.6653 207.588 44.6179 207.379 42.1042 207.484 40.2189 207.903 35.0868 208.845 33.9347 212.197 36.1342 219.633 37.9147 225.813 38.1242 225.917 45.3511 223.194ZM134.063 181.09C136.682 180.462 139.824 179.1 140.976 177.948 143.175 175.853 146.422 166.951 145.375 165.903 145.061 165.589 142.023 166.322 138.672 167.474 124.532 172.083 110.602 171.349 90.1784 164.751L78.2384 160.876 76.2484 163.389C73.7347 166.427 74.1537 170.093 77.0863 170.512 78.2384 170.721 89.7595 173.339 102.747 176.482 129.036 182.766 127.674 182.556 134.063 181.09ZM42.9421 174.492C49.75 172.083 49.75 171.978 50.0642 167.684 50.4832 162.866 49.4358 162.342 43.5705 164.856 39.3811 166.636 35.6105 171.14 35.6105 174.492 35.6105 175.853 35.7153 177.005 35.9247 177.005 36.0295 177.005 39.1716 175.853 42.9421 174.492ZM167.265 172.397C178.262 172.187 180.357 171.873 186.222 169.15 197.324 164.123 201.723 156.896 204.132 139.824 205.703 128.931 203.189 114.373 198.372 107.146 197.115 105.156 195.963 104.737 191.459 104.737 186.327 104.737 185.908 104.946 181.09 110.288 178.262 113.221 174.387 117.41 172.502 119.505 170.512 121.495 168.626 124.846 168.207 126.941 167.893 128.931 166.636 131.445 165.484 132.492 164.332 133.539 163.389 135.634 163.389 137.205 163.389 141.29 161.295 146.736 158.676 149.774 156.163 152.602 154.592 158.048 153.335 167.998 152.811 172.502 152.916 173.968 153.858 173.444 154.487 173.025 160.562 172.606 167.265 172.397ZM137.415 164.646C145.061 161.923 149.564 158.676 150.402 155.429 150.821 153.963 150.926 152.706 150.716 152.497 150.507 152.287 147.051 152.916 142.966 153.963 133.854 156.372 120.762 156.582 112.592 154.487 109.136 153.544 102.537 151.135 97.9289 149.041 86.3032 143.908 84.6274 143.699 81.7995 147.26 76.0389 154.592 84.3132 161.504 104.213 166.113 113.116 168.103 129.769 167.474 137.415 164.646ZM51.6353 155.011C52.8921 153.858 55.72 142.547 54.9868 141.395 53.6253 139.195 49.3311 140.452 46.2937 143.908 42.9421 147.784 40.3237 154.277 41.3711 156.058 42.1042 157.21 50.1689 156.372 51.6353 155.011ZM143.489 149.774C151.24 147.155 157.105 142.337 157.105 138.462 157.105 136.472 156.686 136.053 155.325 136.682 149.878 139.091 142.023 140.347 133.539 140.347 122.542 140.347 114.477 137.834 102.642 131.026 98.4526 128.722 94.4726 126.732 93.7395 126.732 91.54 126.732 87.979 131.026 87.979 133.749 87.979 139.405 100.443 147.888 113.954 151.345 122.018 153.439 134.796 152.706 143.489 149.774ZM146.841 135.948C154.068 134.377 162.971 128.093 160.876 125.998 160.666 125.789 157.524 126.103 153.963 126.836 145.375 128.512 134.273 127.465 127.465 124.323 124.427 122.961 118.143 118.876 113.43 115.315 104.004 108.193 102.328 107.879 98.4526 112.802 95.52 116.572 95.8342 118.667 99.7095 123.171 106.098 130.397 116.886 135.634 128.617 136.996 135.948 137.938 138.567 137.834 146.841 135.948ZM59.8047 129.35C63.7847 119.505 63.68 118.353 59.4905 118.353 54.0442 118.353 52.2637 120.447 50.9021 128.093 50.0642 132.702 52.3684 137.519 55.1963 136.996 56.0342 136.786 58.1289 133.435 59.8047 129.35ZM157.734 122.018C160.666 121.181 164.018 119.4 165.379 117.934L167.684 115.42 155.848 115.001C140.871 114.477 137.519 112.906 126.208 100.862 118.038 92.3779 117.619 92.0637 115.001 93.3205 111.126 94.9963 109.45 99.3953 110.916 104.004 112.173 107.565 117.305 113.011 123.38 117.201 132.178 123.275 146.736 125.265 157.734 122.018ZM172.502 110.497 175.434 108.507 171.768 107.565C154.382 103.061 149.145 99.8142 140.452 88.1884 135.739 81.9042 134.273 80.6474 131.759 80.6474 128.303 80.6474 124.637 83.8942 124.637 86.9316 124.637 92.5874 132.387 103.271 139.824 107.879 148.412 113.116 166.217 114.582 172.502 110.497ZM67.8695 108.193C69.0216 106.517 71.2211 102.747 72.7921 99.6047 75.7247 93.6347 75.8295 89.3405 73.0016 85.3605 71.64 83.58 71.4305 83.58 68.7074 85.3605 61.69 89.9689 57.5005 103.271 61.3758 108.717 63.4705 111.754 65.4605 111.649 67.8695 108.193ZM179.519 104.108C182.137 103.061 181.509 101.909 176.796 99.0811 170.093 95.2058 164.542 88.9216 159.095 79.2858 155.115 72.1637 153.649 70.4879 150.821 69.7547 147.784 68.8121 147.155 69.0216 144.956 71.64 143.594 73.2111 142.442 75.3058 142.442 76.3532 142.442 83.3705 151.24 96.4626 158.572 100.233 165.694 104.004 175.225 105.784 179.519 104.108ZM205.808 102.642C206.541 100.233 205.598 98.1384 204.132 98.9763 202.875 99.8142 202.875 104.737 204.132 104.737 204.656 104.737 205.389 103.794 205.808 102.642ZM202.142 93.8442C202.142 90.2832 199.105 83.58 197.324 83.0563 194.182 82.1137 194.601 95.2058 197.743 98.7668 199.419 100.547 199.524 100.547 200.781 98.8716 201.514 97.8242 202.142 95.52 202.142 93.8442ZM184.337 98.8716C184.337 98.5574 182.975 96.3579 181.404 93.9489 177.424 88.0837 174.911 80.4379 174.911 73.8395 174.911 66.5079 172.921 63.8895 167.16 63.8895 164.751 63.8895 162.237 64.4132 161.504 65.1463 156.477 70.1737 166.951 89.6547 179.1 97.8242 181.614 99.5 184.337 100.024 184.337 98.8716ZM192.192 96.6721C190.412 92.2732 189.574 86.6174 189.888 79.8095 190.097 73.8395 189.678 72.0589 188.107 70.2784 183.289 64.9368 178.681 70.1737 179.519 79.8095 180.252 87.0363 182.242 92.2732 185.803 95.8342 188.945 98.9763 193.344 99.5 192.192 96.6721ZM83.8942 80.9616C89.2358 75.3058 91.1211 72.1637 91.1211 69.0216 91.1211 61.8995 87.8742 60.9568 82.1137 66.2984 78.2384 69.8595 76.0389 76.0389 77.1911 80.6474 78.4479 85.9889 79.0763 86.0937 83.8942 80.9616ZM104.842 58.6526C107.879 56.1389 108.822 54.4632 109.974 49.3311 111.964 39.8 110.078 37.4958 104.213 42.1042 98.8716 46.2937 95.52 57.3958 98.6621 60.5379 100.443 62.3184 100.652 62.2137 104.842 58.6526Z" fill="#175843" fill-rule="nonzero" fill-opacity="1" transform="matrix(1.00025 0 0 -1 105.023 613)"/><path d="M137.415 203.189C134.901 202.666 123.485 199.105 111.964 195.334 87.56 187.269 78.9716 185.384 65.1463 185.279 53.5205 185.07 56.3484 183.604 68.6026 183.394 81.1711 183.185 92.5874 185.279 112.383 191.145 133.435 197.534 144.327 199.314 156.058 198.476 181.823 196.486 201.304 185.803 210.312 168.731 221.937 147.051 224.032 118.562 216.072 92.1684 211.464 76.5626 202.561 62.2137 192.925 54.9868 187.688 50.9021 187.793 50.3784 193.554 53.3111 198.791 55.9295 210.312 68.1837 215.025 75.9342 224.87 92.3779 228.955 109.764 228.012 130.921 226.755 155.848 220.681 172.292 208.007 184.861 199.314 193.449 193.554 196.801 180.671 200.676 172.816 202.98 168.836 203.504 156.582 203.818 148.517 204.027 139.928 203.713 137.415 203.189Z" fill="#175843" fill-rule="nonzero" fill-opacity="1" transform="matrix(1.00025 0 0 -1 105.023 613)"/></g></g></g></g></svg>